<mxfile host="Electron" agent="Mozilla/5.0 (Windows NT 10.0; Win64; x64) AppleWebKit/537.36 (KHTML, like Gecko) draw.io/26.1.1 Chrome/132.0.6834.210 Electron/34.3.3 Safari/537.36" version="26.1.1">
  <diagram name="Page-1" id="-IXOVOkpxRyELUl7NMde">
    <mxGraphModel dx="1195" dy="737" grid="1" gridSize="10" guides="1" tooltips="1" connect="1" arrows="1" fold="1" page="1" pageScale="1" pageWidth="850" pageHeight="1100" math="0" shadow="0">
      <root>
        <mxCell id="0" />
        <mxCell id="1" parent="0" />
        <mxCell id="p5Biv2Sy-w0bLgvdEVat-2" value="" style="rounded=0;whiteSpace=wrap;html=1;" vertex="1" parent="1">
          <mxGeometry x="240" y="170" width="580" height="450" as="geometry" />
        </mxCell>
        <mxCell id="p5Biv2Sy-w0bLgvdEVat-8" style="rounded=0;orthogonalLoop=1;jettySize=auto;html=1;entryX=0;entryY=0.5;entryDx=0;entryDy=0;" edge="1" parent="1" source="p5Biv2Sy-w0bLgvdEVat-1" target="p5Biv2Sy-w0bLgvdEVat-5">
          <mxGeometry relative="1" as="geometry" />
        </mxCell>
        <mxCell id="p5Biv2Sy-w0bLgvdEVat-9" style="rounded=0;orthogonalLoop=1;jettySize=auto;html=1;exitX=0.5;exitY=0.5;exitDx=0;exitDy=0;exitPerimeter=0;entryX=0;entryY=0.5;entryDx=0;entryDy=0;" edge="1" parent="1" source="p5Biv2Sy-w0bLgvdEVat-1" target="p5Biv2Sy-w0bLgvdEVat-6">
          <mxGeometry relative="1" as="geometry" />
        </mxCell>
        <mxCell id="p5Biv2Sy-w0bLgvdEVat-1" value="User" style="shape=umlActor;verticalLabelPosition=bottom;verticalAlign=top;html=1;outlineConnect=0;" vertex="1" parent="1">
          <mxGeometry x="130" y="350" width="30" height="60" as="geometry" />
        </mxCell>
        <mxCell id="p5Biv2Sy-w0bLgvdEVat-4" value="QLSP" style="text;html=1;align=center;verticalAlign=middle;whiteSpace=wrap;rounded=0;" vertex="1" parent="1">
          <mxGeometry x="465" y="180" width="60" height="30" as="geometry" />
        </mxCell>
        <mxCell id="p5Biv2Sy-w0bLgvdEVat-5" value="Create Product" style="ellipse;whiteSpace=wrap;html=1;" vertex="1" parent="1">
          <mxGeometry x="290" y="260" width="120" height="80" as="geometry" />
        </mxCell>
        <mxCell id="p5Biv2Sy-w0bLgvdEVat-14" style="rounded=0;orthogonalLoop=1;jettySize=auto;html=1;exitX=1;exitY=0.5;exitDx=0;exitDy=0;entryX=0;entryY=0.5;entryDx=0;entryDy=0;dashed=1;startArrow=classic;startFill=1;endArrow=none;" edge="1" parent="1" source="p5Biv2Sy-w0bLgvdEVat-6" target="p5Biv2Sy-w0bLgvdEVat-11">
          <mxGeometry relative="1" as="geometry" />
        </mxCell>
        <mxCell id="p5Biv2Sy-w0bLgvdEVat-18" value="&amp;lt;&amp;lt;extend&amp;gt;&amp;gt;" style="edgeLabel;html=1;align=center;verticalAlign=middle;resizable=0;points=[];" vertex="1" connectable="0" parent="p5Biv2Sy-w0bLgvdEVat-14">
          <mxGeometry x="-0.0649" y="-2" relative="1" as="geometry">
            <mxPoint as="offset" />
          </mxGeometry>
        </mxCell>
        <mxCell id="p5Biv2Sy-w0bLgvdEVat-15" style="rounded=0;orthogonalLoop=1;jettySize=auto;html=1;exitX=1;exitY=0.5;exitDx=0;exitDy=0;entryX=0;entryY=0.5;entryDx=0;entryDy=0;dashed=1;startArrow=classic;startFill=1;endArrow=none;" edge="1" parent="1" source="p5Biv2Sy-w0bLgvdEVat-6" target="p5Biv2Sy-w0bLgvdEVat-10">
          <mxGeometry relative="1" as="geometry" />
        </mxCell>
        <mxCell id="p5Biv2Sy-w0bLgvdEVat-19" value="&amp;lt;&amp;lt;extend&amp;gt;&amp;gt;" style="edgeLabel;html=1;align=center;verticalAlign=middle;resizable=0;points=[];" vertex="1" connectable="0" parent="p5Biv2Sy-w0bLgvdEVat-15">
          <mxGeometry x="0.0486" y="2" relative="1" as="geometry">
            <mxPoint as="offset" />
          </mxGeometry>
        </mxCell>
        <mxCell id="p5Biv2Sy-w0bLgvdEVat-6" value="View all products" style="ellipse;whiteSpace=wrap;html=1;" vertex="1" parent="1">
          <mxGeometry x="290" y="410" width="120" height="80" as="geometry" />
        </mxCell>
        <mxCell id="p5Biv2Sy-w0bLgvdEVat-10" value="Search product" style="ellipse;whiteSpace=wrap;html=1;" vertex="1" parent="1">
          <mxGeometry x="465" y="510" width="120" height="80" as="geometry" />
        </mxCell>
        <mxCell id="p5Biv2Sy-w0bLgvdEVat-16" style="rounded=0;orthogonalLoop=1;jettySize=auto;html=1;exitX=1;exitY=0.5;exitDx=0;exitDy=0;entryX=0;entryY=0.5;entryDx=0;entryDy=0;dashed=1;endArrow=none;startFill=1;startArrow=classic;" edge="1" parent="1" source="p5Biv2Sy-w0bLgvdEVat-11" target="p5Biv2Sy-w0bLgvdEVat-12">
          <mxGeometry relative="1" as="geometry" />
        </mxCell>
        <mxCell id="p5Biv2Sy-w0bLgvdEVat-20" value="&amp;lt;&amp;lt;extend&amp;gt;&amp;gt;" style="edgeLabel;html=1;align=center;verticalAlign=middle;resizable=0;points=[];" vertex="1" connectable="0" parent="p5Biv2Sy-w0bLgvdEVat-16">
          <mxGeometry x="0.0188" relative="1" as="geometry">
            <mxPoint as="offset" />
          </mxGeometry>
        </mxCell>
        <mxCell id="p5Biv2Sy-w0bLgvdEVat-17" style="rounded=0;orthogonalLoop=1;jettySize=auto;html=1;exitX=1;exitY=0.5;exitDx=0;exitDy=0;entryX=0;entryY=0.5;entryDx=0;entryDy=0;dashed=1;startArrow=classic;startFill=1;endArrow=none;" edge="1" parent="1" source="p5Biv2Sy-w0bLgvdEVat-11" target="p5Biv2Sy-w0bLgvdEVat-13">
          <mxGeometry relative="1" as="geometry" />
        </mxCell>
        <mxCell id="p5Biv2Sy-w0bLgvdEVat-21" value="&amp;lt;&amp;lt;extend&amp;gt;&amp;gt;" style="edgeLabel;html=1;align=center;verticalAlign=middle;resizable=0;points=[];" vertex="1" connectable="0" parent="p5Biv2Sy-w0bLgvdEVat-17">
          <mxGeometry x="-0.165" relative="1" as="geometry">
            <mxPoint x="9" as="offset" />
          </mxGeometry>
        </mxCell>
        <mxCell id="p5Biv2Sy-w0bLgvdEVat-11" value="View product details" style="ellipse;whiteSpace=wrap;html=1;" vertex="1" parent="1">
          <mxGeometry x="470" y="355" width="120" height="80" as="geometry" />
        </mxCell>
        <mxCell id="p5Biv2Sy-w0bLgvdEVat-12" value="Edit product" style="ellipse;whiteSpace=wrap;html=1;" vertex="1" parent="1">
          <mxGeometry x="640" y="290" width="120" height="80" as="geometry" />
        </mxCell>
        <mxCell id="p5Biv2Sy-w0bLgvdEVat-13" value="Delete product" style="ellipse;whiteSpace=wrap;html=1;" vertex="1" parent="1">
          <mxGeometry x="640" y="410" width="120" height="80" as="geometry" />
        </mxCell>
      </root>
    </mxGraphModel>
  </diagram>
</mxfile>
